# Blender 4.2.0
# www.blender.org
mtllib Gen4OW.mtl
o Gen4OW
v 0.489479 0.052223 0.607082
v 1.089479 0.052223 0.607082
v 1.089479 0.051077 0.007367
v 0.489479 0.051077 0.007367
v 0.489479 0.051077 0.007367
v 1.089479 0.051077 0.007367
v 1.089479 0.049931 -0.592348
v 0.489479 0.049931 -0.592348
v 0.489479 0.049931 -0.592348
v -0.110521 0.049931 -0.592348
v -0.110521 0.051077 0.007367
v 0.489479 0.051077 0.007367
v 0.489479 0.051077 0.007367
v -0.110521 0.051077 0.007367
v -0.110521 0.052223 0.607082
v 0.489479 0.052223 0.607082
v -0.440521 0.130945 0.286862
v 1.479479 0.130945 0.286861
v 1.479479 1.364495 -1.183226
v -0.440522 1.364495 -1.183226
vn -0.0000 1.0000 -0.0019
vn -0.0000 0.7660 0.6428
vt 0.500000 -0.156250
vt 0.996094 -0.156250
vt 0.996094 0.343750
vt 0.500000 0.343750
vt 0.996094 0.839844
vt 0.500000 0.839844
vt 0.003906 0.839844
vt 0.003906 0.343750
vt 0.003906 -0.156250
vt 0.000000 0.000000
vt 1.000000 0.000000
vt 1.000000 1.000000
vt 0.000000 1.000000
s 0
usemtl Shadow
f 1/1/1 2/2/1 3/3/1 4/4/1
f 5/4/1 6/3/1 7/5/1 8/6/1
f 9/6/1 10/7/1 11/8/1 12/4/1
f 13/4/1 14/8/1 15/9/1 16/1/1
usemtl Model
f 17/10/2 18/11/2 19/12/2 20/13/2
